<svg width="300" height="200" viewBox="0 0 300 200" xmlns="http://www.w3.org/2000/svg">
      <g>
        <polygon points="200,100 199.2403876506104,108.68240888334651 196.98463103929544,117.10100716628344 193.30127018922195,125 188.3022221559489,132.13938048432698 182.13938048432698,138.3022221559489 175,143.30127018922192 167.10100716628344,146.9846310392954 158.6824088833465,149.2403876506104 150,150 141.3175911166535,149.2403876506104 132.89899283371656,146.98463103929544 125.00000000000001,143.30127018922195 117.86061951567302,138.3022221559489 111.6977778440511,132.13938048432698 106.69872981077806,125 103.01536896070459,117.10100716628344 100.7596123493896,108.68240888334651 100,100 100.7596123493896,91.31759111665347 103.01536896070458,82.89899283371656 106.69872981077808,75 111.6977778440511,67.86061951567304 117.86061951567302,61.6977778440511 124.99999999999997,56.698729810778076 132.89899283371653,53.01536896070459 141.3175911166535,50.7596123493896 150,50 158.6824088833465,50.75961234938959 167.1010071662834,53.01536896070457 175,56.69872981077807 182.13938048432698,61.697777844051096 188.3022221559489,67.86061951567302 193.30127018922192,74.99999999999997 196.98463103929544,82.89899283371656 199.2403876506104,91.31759111665343" fill="yellow" />
        <text x="150" y="100" text-anchor="middle" fill="red">CLK</text>
      </g>
    </svg>